M48
; DRILL file {KiCad 7.0.7} date Tue Mar 19 08:20:02 2024
; FORMAT={-:-/ absolute / metric / decimal}
; #@! TF.CreationDate,2024-03-19T08:20:02-04:00
; #@! TF.GenerationSoftware,Kicad,Pcbnew,7.0.7
; #@! TF.FileFunction,Plated,1,2,PTH
FMAT,2
METRIC
; #@! TA.AperFunction,Plated,PTH,ViaDrill
T1C0.400
; #@! TA.AperFunction,Plated,PTH,ComponentDrill
T2C0.700
; #@! TA.AperFunction,Plated,PTH,ComponentDrill
T3C0.800
; #@! TA.AperFunction,Plated,PTH,ComponentDrill
T4C0.900
; #@! TA.AperFunction,Plated,PTH,ComponentDrill
T5C0.990
; #@! TA.AperFunction,Plated,PTH,ComponentDrill
T6C1.000
; #@! TA.AperFunction,Plated,PTH,ComponentDrill
T7C1.300
; #@! TA.AperFunction,Plated,PTH,ComponentDrill
T8C1.600
; #@! TA.AperFunction,Plated,PTH,ComponentDrill
T9C3.200
%
G90
G05
T1
X127.317Y-139.758
X128.27Y-130.175
X135.255Y-99.695
X141.344Y-79.001
X142.24Y-83.82
X142.558Y-142.457
X144.39Y-117.656
X147.771Y-118.612
X147.779Y-138.112
X150.585Y-112.263
X151.091Y-69.427
X151.765Y-95.25
X153.0Y-67.855
X153.023Y-73.013
X153.035Y-85.725
X153.352Y-53.34
X154.305Y-143.906
X154.322Y-98.386
X154.733Y-112.037
X155.575Y-61.609
X155.869Y-144.78
X156.04Y-89.16
X156.616Y-99.907
X157.162Y-122.0
X157.217Y-134.213
X157.48Y-65.474
X157.797Y-115.57
X160.03Y-110.183
X161.29Y-72.39
X161.925Y-97.155
X161.925Y-104.14
X165.19Y-95.644
X168.275Y-102.235
X168.275Y-140.97
X168.91Y-110.172
X170.878Y-114.017
X172.403Y-99.06
X173.037Y-103.822
X176.847Y-60.96
X178.303Y-118.503
X181.61Y-106.68
X185.638Y-127.635
X186.055Y-95.25
X188.913Y-60.642
X190.685Y-142.017
X191.396Y-118.1
X192.171Y-139.868
X195.285Y-58.42
X197.907Y-134.213
X198.746Y-138.978
X198.755Y-62.955
X198.755Y-109.855
X199.078Y-134.48
X202.513Y-94.705
X207.645Y-97.155
X208.28Y-106.68
X209.55Y-62.865
X210.185Y-110.172
X213.677Y-111.782
X215.265Y-109.855
X216.218Y-50.482
X217.396Y-86.36
X217.62Y-118.427
X217.805Y-79.375
X217.805Y-85.09
X217.851Y-56.025
X218.123Y-77.47
X218.123Y-82.55
X219.289Y-100.011
X219.401Y-129.549
X220.345Y-135.89
X220.98Y-53.34
X220.98Y-58.42
X220.98Y-87.63
X222.567Y-69.85
X224.155Y-55.88
X224.155Y-60.96
X224.155Y-109.855
X225.425Y-78.105
X227.965Y-101.6
X227.965Y-106.045
X231.3Y-88.844
X231.438Y-112.504
X232.41Y-144.145
X233.13Y-103.676
X233.68Y-95.885
X233.68Y-101.6
X233.68Y-105.41
X234.141Y-138.714
X234.632Y-120.332
X235.628Y-91.162
X235.884Y-92.568
X236.039Y-77.57
X236.05Y-60.96
X236.203Y-90.315
X237.172Y-96.203
X237.711Y-82.34
X237.776Y-58.456
X238.283Y-88.758
X238.639Y-52.422
X238.76Y-109.855
X239.112Y-83.663
X240.03Y-62.865
X240.041Y-68.909
X240.726Y-85.878
X240.982Y-80.01
X241.3Y-92.71
X241.743Y-94.34
X243.84Y-72.242
X245.326Y-107.661
X245.745Y-96.52
X246.062Y-136.843
X247.015Y-136.525
X248.367Y-135.491
X248.693Y-118.11
X248.826Y-128.27
X248.92Y-123.19
X249.11Y-84.614
X250.19Y-86.995
X250.64Y-84.265
X251.46Y-96.52
X251.541Y-83.709
X252.095Y-58.42
X252.095Y-93.98
X252.095Y-99.06
X252.095Y-106.045
X252.73Y-55.88
X253.365Y-63.817
X253.682Y-66.4
X254.0Y-129.54
X255.27Y-110.49
X257.833Y-64.824
X257.88Y-70.164
X259.091Y-116.84
X259.134Y-138.321
X259.539Y-114.814
X260.47Y-92.075
X261.063Y-105.131
X261.405Y-140.042
X261.62Y-116.84
X262.879Y-136.514
X263.207Y-126.365
X264.2Y-138.333
X264.512Y-99.657
X265.09Y-105.729
X265.447Y-138.76
X266.065Y-64.77
X266.632Y-140.901
X266.688Y-95.567
X266.7Y-60.96
X267.652Y-133.667
X267.784Y-142.052
X267.97Y-84.138
X269.099Y-139.397
X269.136Y-87.233
X269.158Y-73.262
X269.24Y-55.88
X269.24Y-58.42
X269.243Y-52.495
X269.79Y-116.995
X270.23Y-136.04
X270.51Y-104.14
X270.707Y-66.495
X272.041Y-119.37
X272.288Y-101.82
X272.433Y-124.847
X272.477Y-107.891
X272.596Y-53.413
X273.685Y-70.485
X273.852Y-106.578
X274.32Y-58.42
X274.594Y-143.766
X274.912Y-68.478
X274.955Y-55.88
X275.237Y-125.373
X275.393Y-121.161
X275.59Y-53.34
X275.687Y-126.466
X275.907Y-90.17
X276.51Y-142.875
X276.527Y-141.343
X276.632Y-140.086
X277.017Y-114.895
X277.163Y-144.335
X277.244Y-110.726
X277.261Y-124.114
X278.861Y-141.758
X279.0Y-116.84
X280.025Y-63.115
X280.125Y-88.9
X280.365Y-67.371
X280.988Y-143.51
X281.503Y-122.476
X281.54Y-86.905
X281.94Y-52.705
X282.801Y-137.03
X283.752Y-144.855
X283.799Y-108.757
X284.112Y-141.191
X285.115Y-71.12
X285.115Y-74.612
X285.207Y-145.428
X285.537Y-105.434
X285.598Y-140.761
X285.775Y-100.308
X286.027Y-88.834
X286.189Y-136.7
X286.197Y-133.245
X286.857Y-105.884
X286.981Y-68.521
X287.254Y-143.962
X287.799Y-144.831
X287.877Y-110.876
X287.892Y-65.802
X288.332Y-117.367
X288.401Y-58.737
X288.65Y-68.298
X288.677Y-66.432
X288.792Y-48.562
X288.816Y-105.38
X288.922Y-115.84
X288.924Y-121.465
X289.243Y-97.072
X289.322Y-144.982
X289.817Y-126.471
X289.825Y-79.604
X289.853Y-58.322
X289.973Y-123.315
X290.12Y-121.49
X290.195Y-53.34
X290.248Y-133.4
X290.326Y-143.511
X290.489Y-106.152
X290.74Y-134.505
X292.058Y-144.966
X292.268Y-107.901
X292.344Y-106.707
X293.227Y-143.061
X293.608Y-72.431
X293.661Y-116.25
X293.748Y-144.965
X293.803Y-111.781
X294.267Y-112.732
X294.371Y-102.658
X294.787Y-70.124
X294.822Y-115.626
X295.275Y-98.108
X295.693Y-111.222
X296.141Y-142.611
X296.227Y-103.154
X296.472Y-145.045
X297.434Y-84.114
X298.846Y-83.733
X299.991Y-119.406
X300.164Y-135.509
X300.2Y-106.987
X300.252Y-142.33
X300.574Y-117.161
X301.7Y-142.345
X301.94Y-95.956
X301.993Y-119.268
X302.26Y-51.345
X302.589Y-103.428
X303.274Y-104.795
X303.364Y-119.817
X304.094Y-130.766
X304.165Y-55.88
X304.165Y-58.42
X304.165Y-62.23
X304.243Y-110.733
X305.558Y-142.879
X305.98Y-143.937
X306.07Y-141.926
X306.144Y-124.93
X306.949Y-124.32
X308.61Y-55.245
X309.03Y-101.312
X309.152Y-116.682
X309.173Y-117.955
X309.245Y-57.785
X309.245Y-63.5
X309.245Y-68.58
X309.558Y-89.218
X310.026Y-101.23
X312.42Y-135.255
X313.221Y-144.463
X313.69Y-74.93
X313.962Y-123.169
X314.412Y-140.06
X314.619Y-143.422
X315.835Y-122.378
X316.288Y-109.543
X317.5Y-74.93
X317.893Y-140.275
X318.135Y-80.645
X318.249Y-111.833
X318.854Y-108.026
X319.149Y-109.367
X319.405Y-135.255
X321.945Y-127.635
X322.247Y-145.097
X322.987Y-144.13
X323.215Y-85.09
X323.23Y-107.266
X326.693Y-108.495
X326.708Y-116.84
X327.66Y-60.96
X327.66Y-95.885
X327.66Y-142.24
X327.74Y-77.455
X328.295Y-68.58
X328.549Y-86.345
X328.667Y-133.35
X329.565Y-111.125
X330.518Y-131.127
X330.598Y-90.664
X331.053Y-124.56
X331.539Y-118.641
X331.615Y-115.083
X332.641Y-115.159
X332.673Y-127.095
X332.74Y-73.66
X332.74Y-143.51
X332.987Y-139.055
X333.145Y-66.571
X334.327Y-142.875
X335.28Y-144.78
X335.357Y-127.104
X336.082Y-105.395
X336.55Y-60.325
X336.55Y-92.392
X336.682Y-96.559
X337.003Y-79.166
X337.984Y-142.432
X338.136Y-138.648
X338.244Y-94.801
X338.779Y-136.922
X339.172Y-109.413
X339.188Y-96.686
X344.487Y-127.0
X344.488Y-129.54
X344.489Y-95.085
X346.64Y-81.384
X353.695Y-113.665
X354.322Y-91.245
X367.03Y-105.41
X367.665Y-49.53
T2
X298.45Y-76.2
X298.45Y-78.74
X306.07Y-76.2
X306.07Y-78.74
X323.85Y-58.42
X331.47Y-58.42
X334.01Y-58.42
X341.63Y-58.42
X344.17Y-58.42
X344.17Y-66.04
X346.71Y-58.42
X346.71Y-66.04
X349.25Y-58.42
X349.25Y-66.04
T3
X123.825Y-58.42
X123.825Y-60.96
X123.825Y-63.5
X123.825Y-66.04
X123.825Y-68.58
X123.825Y-71.12
X123.825Y-73.66
X123.825Y-76.2
X123.825Y-78.74
X123.825Y-81.28
X123.825Y-83.82
X123.825Y-86.36
X123.825Y-88.9
X123.825Y-91.44
X123.825Y-93.98
X123.825Y-96.52
X124.455Y-107.935
X124.455Y-110.475
X124.455Y-113.015
X124.455Y-115.555
X124.455Y-118.095
X124.455Y-120.635
X124.455Y-123.175
X124.455Y-125.715
X124.455Y-128.255
X124.455Y-130.795
X124.455Y-133.335
X124.455Y-135.875
X124.455Y-138.415
X124.455Y-140.955
X130.195Y-55.245
X130.83Y-104.775
X132.695Y-55.245
X133.33Y-104.775
X139.065Y-58.42
X139.065Y-60.96
X139.065Y-63.5
X139.065Y-66.04
X139.065Y-68.58
X139.065Y-71.12
X139.065Y-73.66
X139.065Y-76.2
X139.065Y-78.74
X139.065Y-81.28
X139.065Y-83.82
X139.065Y-86.36
X139.065Y-88.9
X139.065Y-91.44
X139.065Y-93.98
X139.065Y-96.52
X139.695Y-107.935
X139.695Y-110.475
X139.695Y-113.015
X139.695Y-115.555
X139.695Y-118.095
X139.695Y-120.635
X139.695Y-123.175
X139.695Y-125.715
X139.695Y-128.255
X139.695Y-130.795
X139.695Y-133.335
X139.695Y-135.875
X139.695Y-138.415
X139.695Y-140.955
X146.05Y-113.03
X146.05Y-115.57
X146.05Y-118.11
X146.05Y-120.65
X146.05Y-123.19
X146.05Y-125.73
X146.05Y-128.27
X146.05Y-130.81
X146.05Y-133.35
X146.05Y-135.89
X146.05Y-138.43
X146.05Y-140.97
X147.955Y-53.34
X147.955Y-55.88
X147.955Y-58.42
X147.955Y-60.96
X147.955Y-63.5
X147.955Y-66.04
X147.955Y-68.58
X147.955Y-71.12
X147.955Y-73.66
X147.955Y-76.2
X147.955Y-78.74
X147.955Y-81.28
X147.955Y-83.82
X147.955Y-86.36
X147.955Y-88.9
X147.955Y-91.44
X148.61Y-109.855
X151.11Y-109.855
X153.67Y-113.03
X153.67Y-115.57
X153.67Y-118.11
X153.67Y-120.65
X153.67Y-123.19
X153.67Y-125.73
X153.67Y-128.27
X153.67Y-130.81
X153.67Y-133.35
X153.67Y-135.89
X153.67Y-138.43
X153.67Y-140.97
X154.325Y-50.165
X154.345Y-102.235
X156.825Y-50.165
X156.845Y-102.235
X160.02Y-113.03
X160.02Y-115.57
X160.02Y-118.11
X160.02Y-120.65
X160.02Y-123.19
X160.02Y-125.73
X160.02Y-128.27
X160.02Y-130.81
X162.58Y-109.855
X163.195Y-53.34
X163.195Y-55.88
X163.195Y-58.42
X163.195Y-60.96
X163.195Y-63.5
X163.195Y-66.04
X163.195Y-68.58
X163.195Y-71.12
X163.195Y-73.66
X163.195Y-76.2
X163.195Y-78.74
X163.195Y-81.28
X163.195Y-83.82
X163.195Y-86.36
X163.195Y-88.9
X163.195Y-91.44
X165.08Y-109.855
X167.64Y-113.03
X167.64Y-115.57
X167.64Y-118.11
X167.64Y-120.65
X167.64Y-123.19
X167.64Y-125.73
X167.64Y-128.27
X167.64Y-130.81
X169.545Y-53.34
X169.545Y-55.88
X169.545Y-58.42
X169.545Y-60.96
X169.545Y-63.5
X169.545Y-66.04
X169.545Y-68.58
X169.545Y-71.12
X169.545Y-73.66
X169.545Y-76.2
X169.545Y-78.74
X169.545Y-81.28
X169.545Y-83.82
X169.545Y-86.36
X169.545Y-88.9
X169.545Y-91.44
X173.99Y-113.03
X173.99Y-115.57
X173.99Y-118.11
X173.99Y-120.65
X173.99Y-123.19
X173.99Y-125.73
X173.99Y-128.27
X173.99Y-130.81
X175.915Y-50.165
X176.55Y-109.855
X178.415Y-50.165
X179.05Y-109.855
X181.61Y-113.03
X181.61Y-115.57
X181.61Y-118.11
X181.61Y-120.65
X181.61Y-123.19
X181.61Y-125.73
X181.61Y-128.27
X181.61Y-130.81
X184.785Y-53.34
X184.785Y-55.88
X184.785Y-58.42
X184.785Y-60.96
X184.785Y-63.5
X184.785Y-66.04
X184.785Y-68.58
X184.785Y-71.12
X184.785Y-73.66
X184.785Y-76.2
X184.785Y-78.74
X184.785Y-81.28
X184.785Y-83.82
X184.785Y-86.36
X184.785Y-88.9
X184.785Y-91.44
X187.96Y-113.02
X187.96Y-115.56
X187.96Y-118.1
X187.96Y-120.64
X187.96Y-123.18
X187.96Y-125.72
X187.96Y-128.26
X187.96Y-130.8
X190.52Y-109.855
X191.135Y-53.34
X191.135Y-55.88
X191.135Y-58.42
X191.135Y-60.96
X191.135Y-63.5
X191.135Y-66.04
X191.135Y-68.58
X191.135Y-71.12
X191.135Y-73.66
X191.135Y-76.2
X191.135Y-78.74
X191.135Y-81.28
X191.135Y-83.82
X191.135Y-86.36
X191.135Y-88.9
X191.135Y-91.44
X193.02Y-109.855
X195.58Y-113.02
X195.58Y-115.56
X195.58Y-118.1
X195.58Y-120.64
X195.58Y-123.18
X195.58Y-125.72
X195.58Y-128.26
X195.58Y-130.8
X197.485Y-50.165
X199.985Y-50.165
X201.93Y-113.03
X201.93Y-115.57
X201.93Y-118.11
X201.93Y-120.65
X201.93Y-123.19
X201.93Y-125.73
X201.93Y-128.27
X201.93Y-130.81
X201.93Y-133.35
X201.93Y-135.89
X204.49Y-109.855
X206.375Y-53.34
X206.375Y-55.88
X206.375Y-58.42
X206.375Y-60.96
X206.375Y-63.5
X206.375Y-66.04
X206.375Y-68.58
X206.375Y-71.12
X206.375Y-73.66
X206.375Y-76.2
X206.375Y-78.74
X206.375Y-81.28
X206.375Y-83.82
X206.375Y-86.36
X206.375Y-88.9
X206.375Y-91.44
X206.99Y-109.855
X209.55Y-113.03
X209.55Y-115.57
X209.55Y-118.11
X209.55Y-120.65
X209.55Y-123.19
X209.55Y-125.73
X209.55Y-128.27
X209.55Y-130.81
X209.55Y-133.35
X209.55Y-135.89
X212.725Y-53.34
X212.725Y-55.88
X212.725Y-58.42
X212.725Y-60.96
X212.725Y-63.5
X212.725Y-66.04
X212.725Y-68.58
X212.725Y-71.12
X212.725Y-73.66
X212.725Y-76.2
X212.725Y-78.74
X212.725Y-81.28
X212.725Y-83.82
X212.725Y-86.36
X212.725Y-88.9
X212.725Y-91.44
X215.9Y-113.03
X215.9Y-115.57
X215.9Y-118.11
X215.9Y-120.65
X215.9Y-123.19
X215.9Y-125.73
X215.9Y-128.27
X215.9Y-130.81
X215.9Y-133.35
X215.9Y-135.89
X218.46Y-109.855
X219.115Y-50.165
X219.14Y-102.235
X220.96Y-109.855
X221.615Y-50.165
X221.64Y-102.235
X223.52Y-113.03
X223.52Y-115.57
X223.52Y-118.11
X223.52Y-120.65
X223.52Y-123.19
X223.52Y-125.73
X223.52Y-128.27
X223.52Y-130.81
X223.52Y-133.35
X223.52Y-135.89
X227.965Y-53.34
X227.965Y-55.88
X227.965Y-58.42
X227.965Y-60.96
X227.965Y-63.5
X227.965Y-66.04
X227.965Y-68.58
X227.965Y-71.12
X227.965Y-73.66
X227.965Y-76.2
X227.965Y-78.74
X227.965Y-81.28
X227.965Y-83.82
X227.965Y-86.36
X227.965Y-88.9
X227.965Y-91.44
X229.87Y-113.03
X229.87Y-115.57
X229.87Y-118.11
X229.87Y-120.65
X229.87Y-123.19
X229.87Y-125.73
X229.87Y-128.27
X229.87Y-130.81
X229.87Y-133.35
X229.87Y-135.89
X232.43Y-109.855
X234.27Y-53.335
X234.27Y-55.875
X234.27Y-58.415
X234.27Y-60.955
X234.27Y-63.495
X234.27Y-66.035
X234.27Y-68.575
X234.27Y-71.115
X234.27Y-73.655
X234.27Y-76.195
X234.27Y-78.735
X234.27Y-81.275
X234.93Y-109.855
X236.875Y-50.165
X237.49Y-113.03
X237.49Y-115.57
X237.49Y-118.11
X237.49Y-120.65
X237.49Y-123.19
X237.49Y-125.73
X237.49Y-128.27
X237.49Y-130.81
X237.49Y-133.35
X237.49Y-135.89
X238.125Y-92.71
X238.125Y-100.33
X239.375Y-50.165
X240.685Y-88.265
X241.89Y-53.335
X241.89Y-55.875
X241.89Y-58.415
X241.89Y-60.955
X241.89Y-63.495
X241.89Y-66.035
X241.89Y-68.575
X241.89Y-71.115
X241.89Y-73.655
X241.89Y-76.195
X241.89Y-78.735
X241.89Y-81.275
X243.185Y-88.265
X243.84Y-113.03
X243.84Y-115.57
X243.84Y-118.11
X243.84Y-120.65
X243.84Y-123.19
X243.84Y-125.73
X243.84Y-128.27
X243.84Y-130.81
X243.84Y-133.35
X243.84Y-135.89
X245.745Y-92.71
X245.745Y-100.33
X246.4Y-109.855
X248.285Y-53.34
X248.285Y-55.88
X248.285Y-58.42
X248.285Y-60.96
X248.285Y-63.5
X248.285Y-66.04
X248.285Y-68.58
X248.285Y-71.12
X248.285Y-73.66
X248.285Y-76.2
X248.285Y-78.74
X248.285Y-81.28
X248.9Y-109.855
X250.845Y-50.165
X251.46Y-113.03
X251.46Y-115.57
X251.46Y-118.11
X251.46Y-120.65
X251.46Y-123.19
X251.46Y-125.73
X251.46Y-128.27
X251.46Y-130.81
X251.46Y-133.35
X251.46Y-135.89
X253.345Y-50.165
X255.905Y-53.34
X255.905Y-55.88
X255.905Y-58.42
X255.905Y-60.96
X255.905Y-63.5
X255.905Y-66.04
X255.905Y-68.58
X255.905Y-71.12
X255.905Y-73.66
X255.905Y-76.2
X255.905Y-78.74
X255.905Y-81.28
X255.905Y-91.44
X255.905Y-93.98
X255.905Y-96.52
X255.905Y-99.06
X255.905Y-101.6
X257.81Y-113.03
X257.81Y-115.57
X257.81Y-118.11
X257.81Y-120.65
X257.81Y-123.19
X257.81Y-125.73
X257.81Y-128.27
X257.81Y-130.81
X257.81Y-133.35
X257.81Y-135.89
X260.37Y-109.855
X262.87Y-109.855
X262.89Y-53.34
X262.89Y-55.88
X262.89Y-58.42
X262.89Y-60.96
X262.89Y-63.5
X262.89Y-66.04
X262.89Y-68.58
X262.89Y-71.12
X262.89Y-73.66
X262.89Y-76.2
X262.89Y-78.74
X262.89Y-81.28
X262.89Y-83.82
X262.89Y-86.36
X262.89Y-88.9
X262.89Y-91.44
X262.89Y-93.98
X262.89Y-96.52
X262.89Y-99.06
X262.89Y-101.6
X265.43Y-113.03
X265.43Y-115.57
X265.43Y-118.11
X265.43Y-120.65
X265.43Y-123.19
X265.43Y-125.73
X265.43Y-128.27
X265.43Y-130.81
X265.43Y-133.35
X265.43Y-135.89
X269.26Y-50.165
X271.76Y-50.165
X273.025Y-137.795
X275.525Y-137.795
X278.13Y-53.34
X278.13Y-55.88
X278.13Y-58.42
X278.13Y-60.96
X278.13Y-63.5
X278.13Y-66.04
X278.13Y-68.58
X278.13Y-71.12
X278.13Y-73.66
X278.13Y-76.2
X278.13Y-78.74
X278.13Y-81.28
X278.13Y-83.82
X278.13Y-86.36
X278.13Y-88.9
X278.13Y-91.44
X278.13Y-93.98
X278.13Y-96.52
X278.13Y-99.06
X278.13Y-101.6
X280.035Y-110.49
X280.035Y-113.03
X280.035Y-115.57
X280.035Y-118.11
X280.035Y-120.65
X280.035Y-123.19
X280.035Y-125.73
X280.035Y-128.27
X280.035Y-130.81
X284.44Y-78.74
X284.44Y-81.28
X284.44Y-83.82
X284.44Y-86.36
X284.44Y-88.9
X284.44Y-91.44
X284.44Y-93.98
X284.44Y-96.52
X284.44Y-99.06
X284.44Y-101.6
X284.48Y-53.34
X284.48Y-55.88
X284.48Y-58.42
X284.48Y-60.96
X284.48Y-63.5
X284.48Y-66.04
X284.48Y-68.58
X284.48Y-110.49
X284.48Y-113.03
X284.48Y-115.57
X284.48Y-118.11
X284.48Y-120.65
X284.48Y-123.19
X284.48Y-125.73
X284.48Y-128.27
X284.48Y-130.81
X284.48Y-133.35
X284.48Y-135.89
X284.48Y-138.43
X287.04Y-50.165
X287.04Y-75.565
X287.04Y-107.315
X289.54Y-50.165
X289.54Y-75.565
X289.54Y-107.315
X292.06Y-78.74
X292.06Y-81.28
X292.06Y-83.82
X292.06Y-86.36
X292.06Y-88.9
X292.06Y-91.44
X292.06Y-93.98
X292.06Y-96.52
X292.06Y-99.06
X292.06Y-101.6
X292.1Y-53.34
X292.1Y-55.88
X292.1Y-58.42
X292.1Y-60.96
X292.1Y-63.5
X292.1Y-66.04
X292.1Y-68.58
X292.1Y-110.49
X292.1Y-113.03
X292.1Y-115.57
X292.1Y-118.11
X292.1Y-120.65
X292.1Y-123.19
X292.1Y-125.73
X292.1Y-128.27
X292.1Y-130.81
X292.1Y-133.35
X292.1Y-135.89
X292.1Y-138.43
X296.545Y-118.11
X296.545Y-120.65
X296.545Y-123.19
X296.545Y-125.73
X296.545Y-128.27
X296.545Y-130.81
X296.545Y-133.35
X296.545Y-135.89
X296.545Y-138.43
X298.45Y-86.36
X298.45Y-88.9
X298.45Y-91.44
X298.45Y-93.98
X298.45Y-96.52
X298.45Y-99.06
X298.45Y-101.6
X298.49Y-53.34
X298.49Y-55.88
X298.49Y-58.42
X298.49Y-60.96
X298.49Y-63.5
X298.49Y-66.04
X298.49Y-68.58
X301.01Y-50.165
X301.01Y-83.185
X303.51Y-50.165
X303.51Y-83.185
X306.07Y-86.36
X306.07Y-88.9
X306.07Y-91.44
X306.07Y-93.98
X306.07Y-96.52
X306.07Y-99.06
X306.07Y-101.6
X306.11Y-53.34
X306.11Y-55.88
X306.11Y-58.42
X306.11Y-60.96
X306.11Y-63.5
X306.11Y-66.04
X306.11Y-68.58
X307.34Y-125.73
X307.34Y-133.35
X309.88Y-113.03
X309.9Y-121.285
X312.38Y-113.03
X312.4Y-121.285
X312.42Y-53.34
X312.42Y-55.88
X312.42Y-58.42
X312.42Y-60.96
X312.42Y-63.5
X312.42Y-66.04
X312.42Y-68.58
X312.42Y-71.12
X312.42Y-86.36
X312.42Y-88.9
X312.42Y-91.44
X312.42Y-93.98
X312.42Y-96.52
X312.42Y-99.06
X312.42Y-101.6
X314.96Y-125.73
X314.96Y-133.35
X314.98Y-50.165
X314.98Y-83.185
X317.48Y-50.165
X317.48Y-83.185
X320.04Y-53.34
X320.04Y-55.88
X320.04Y-58.42
X320.04Y-60.96
X320.04Y-63.5
X320.04Y-66.04
X320.04Y-68.58
X320.04Y-71.12
X320.04Y-86.36
X320.04Y-88.9
X320.04Y-91.44
X320.04Y-93.98
X320.04Y-96.52
X320.04Y-99.06
X320.04Y-101.6
X325.115Y-64.755
X325.115Y-67.295
X325.115Y-69.835
X325.115Y-72.375
X325.115Y-74.915
X325.115Y-77.455
X325.115Y-79.995
X325.115Y-82.535
X325.115Y-85.075
X325.115Y-87.615
X325.115Y-90.155
X325.115Y-92.695
X325.115Y-95.235
X325.115Y-97.775
X325.115Y-105.395
X325.115Y-107.935
X325.115Y-110.475
X325.115Y-113.015
X325.115Y-115.555
X325.115Y-118.095
X325.115Y-120.635
X325.115Y-123.175
X325.115Y-125.715
X325.115Y-128.255
X325.115Y-130.795
X325.115Y-133.335
X325.115Y-135.875
X325.115Y-138.415
X331.49Y-61.595
X331.49Y-102.235
X333.99Y-61.595
X333.99Y-102.235
X340.355Y-64.755
X340.355Y-67.295
X340.355Y-69.835
X340.355Y-72.375
X340.355Y-74.915
X340.355Y-77.455
X340.355Y-79.995
X340.355Y-82.535
X340.355Y-85.075
X340.355Y-87.615
X340.355Y-90.155
X340.355Y-92.695
X340.355Y-95.235
X340.355Y-97.775
X340.355Y-105.395
X340.355Y-107.935
X340.355Y-110.475
X340.355Y-113.015
X340.355Y-115.555
X340.355Y-118.095
X340.355Y-120.635
X340.355Y-123.175
X340.355Y-125.715
X340.355Y-128.255
X340.355Y-130.795
X340.355Y-133.335
X340.355Y-135.875
X340.355Y-138.415
X345.44Y-72.39
X345.44Y-74.93
X345.44Y-77.47
X345.44Y-80.01
X345.44Y-82.55
X345.44Y-85.09
X345.44Y-87.63
X345.44Y-90.17
X345.45Y-120.64
X345.45Y-123.18
X345.45Y-125.72
X345.45Y-128.26
X345.45Y-130.8
X345.45Y-133.34
X345.45Y-135.88
X345.45Y-138.42
X348.0Y-117.475
X348.02Y-69.215
X348.02Y-105.41
X350.5Y-117.475
X350.52Y-69.215
X350.52Y-105.41
X352.415Y-63.5
X353.06Y-72.39
X353.06Y-74.93
X353.06Y-77.47
X353.06Y-80.01
X353.06Y-82.55
X353.06Y-85.09
X353.06Y-87.63
X353.06Y-90.17
X353.07Y-120.64
X353.07Y-123.18
X353.07Y-125.72
X353.07Y-128.26
X353.07Y-130.8
X353.07Y-133.34
X353.07Y-135.88
X353.07Y-138.42
X354.955Y-63.5
X356.235Y-72.41
X356.235Y-74.91
X356.235Y-77.49
X356.235Y-79.99
X356.235Y-82.57
X356.235Y-85.07
X356.235Y-87.65
X356.235Y-90.15
X356.235Y-120.67
X356.235Y-123.17
X356.235Y-125.75
X356.235Y-128.25
X356.235Y-130.83
X356.235Y-133.33
X356.235Y-135.91
X356.235Y-138.41
X357.495Y-63.5
T4
X323.195Y-53.34
X325.735Y-53.34
X328.275Y-53.34
X330.815Y-53.34
X333.355Y-53.34
X335.895Y-53.34
X338.435Y-53.34
X340.975Y-53.34
X343.515Y-53.34
X346.055Y-53.34
T5
X349.83Y-49.861
X354.33Y-49.861
T6
X362.795Y-124.01
X362.795Y-126.78
X362.795Y-129.55
X362.795Y-132.32
X362.795Y-135.09
X362.92Y-75.45
X362.92Y-78.22
X362.92Y-80.99
X362.92Y-83.76
X362.92Y-86.53
X365.635Y-125.395
X365.635Y-128.165
X365.635Y-130.935
X365.635Y-133.705
X365.76Y-76.835
X365.76Y-79.605
X365.76Y-82.375
X365.76Y-85.145
T7
X348.58Y-52.351
X355.59Y-52.351
T8
X359.155Y-58.549
X363.855Y-58.549
X368.555Y-58.549
T9
X363.095Y-117.05
X363.095Y-142.05
X363.22Y-68.49
X363.22Y-93.49
T6
X356.41Y-104.075G85X356.41Y-106.575
G05
X360.66Y-100.625G85X358.16Y-100.625
G05
X362.41Y-104.075G85X362.41Y-106.575
G05
T0
M30
